PathFileType	4	(X/Y/Z)	OpenSim_Sub06_CSBaseline_Magnet.trc
DataRate	CameraRate	NumFrames	NumMarkers	Units	OrigDataRate	OrigDataStartFrame	OrigNumFrames
100	100	16	8	m	100	7431	8492
Frame#	Time	torso_imu_offset_imu	pelvis_imu_offset_imu	tibia_r_imu_offset_imu	femur_r_imu_offset_imu	tibia_l_imu_offset_imu	femur_l_imu_offset_imu	toes_r_imu_offset_imu	toes_l_imu_offset_imu
				X1	Y1	Z1	X2	Y2	Z2	X3	Y3	Z3	X4	Y4	Z4	X5	Y5	Z5	X6	Y6	Z6	X7	Y7	Z7	X8		Y8	Z8	

7431	74.30000000	-0.94535564	-0.13600691	0.08946558	-0.50584212	0.18144548	-0.76966572	-0.56609298	-0.58186048	-0.17501742	-0.73818111	-0.34403718	0.13905155	-0.31853170	0.76576592	-0.02495645	-0.51535245	0.20235191	0.38537203	-0.59429882	-0.21719257	-0.48726539	-0.80775844	0.20303071	-0.04537469
7432	74.31000000	-0.94581872	-0.13349896	0.09574085	-0.50622965	0.17692831	-0.76746564	-0.56192953	-0.59399829	-0.17017620	-0.74110921	-0.35066309	0.13629104	-0.34743388	0.75969195	-0.01136317	-0.51757664	0.18804700	0.38668317	-0.59578125	-0.22538693	-0.48550661	-0.80512655	0.19247449	-0.07195251
7433	74.32000000	-0.94584926	-0.13112559	0.09788860	-0.50151346	0.17274053	-0.76931459	-0.55539655	-0.59511207	-0.16705458	-0.73773434	-0.35722922	0.14111258	-0.36521490	0.74250727	0.00399766	-0.51717952	0.17202988	0.40239434	-0.59474471	-0.21962622	-0.48733525	-0.80920258	0.17760642	-0.10379008
7434	74.33000000	-0.94559001	-0.13314410	0.10491831	-0.50536735	0.16877915	-0.77114915	-0.55290739	-0.59679048	-0.17325278	-0.73312469	-0.35683957	0.13931793	-0.39260933	0.72868005	0.00751661	-0.51493353	0.16343400	0.40404698	-0.58973251	-0.22697181	-0.48735309	-0.80042984	0.16215073	-0.12269923
7435	74.34000000	-0.94962205	-0.13176484	0.09875828	-0.50342084	0.16230854	-0.77852437	-0.55087943	-0.59667642	-0.18009609	-0.73096435	-0.36901516	0.13984418	-0.42191122	0.71592157	0.01734475	-0.50969674	0.15028666	0.40118424	-0.59585313	-0.22417949	-0.48900583	-0.79872757	0.14866718	-0.14209230
7436	74.35000000	-0.95029448	-0.12727196	0.10375579	-0.50323078	0.16018724	-0.77349933	-0.54907718	-0.60267284	-0.18639141	-0.72302629	-0.36962500	0.13516636	-0.44626618	0.69829296	0.01909537	-0.51566443	0.14589300	0.40571752	-0.59255118	-0.22328735	-0.49534590	-0.80117453	0.14020309	-0.16876851
7437	74.36000000	-0.94844025	-0.12510221	0.11101790	-0.50110086	0.15598907	-0.78280971	-0.53844239	-0.60525386	-0.19552067	-0.71776070	-0.37519812	0.13926885	-0.46815715	0.68257263	0.02267812	-0.51394201	0.13267625	0.40600117	-0.58991352	-0.22874421	-0.49912571	-0.79639364	0.12306472	-0.19024234
7438	74.37000000	-0.94382454	-0.12075111	0.11120223	-0.50114540	0.15736538	-0.77393793	-0.53975065	-0.60506046	-0.19611752	-0.71983822	-0.38003996	0.14241572	-0.49387670	0.66595796	0.01344455	-0.50966880	0.13627466	0.41225471	-0.58543660	-0.23678061	-0.50594282	-0.79348827	0.11365119	-0.20461662
7439	74.38000000	-0.94806620	-0.12264039	0.11117251	-0.49697779	0.15842787	-0.78420571	-0.53970402	-0.60745394	-0.19787206	-0.71403021	-0.38131023	0.14182572	-0.52450232	0.63757536	0.00798007	-0.50678050	0.13204752	0.41327759	-0.58540907	-0.24174716	-0.49969922	-0.78894240	0.10134510	-0.24033399
7440	74.39000000	-0.94592997	-0.12098817	0.11317569	-0.49627199	0.15172346	-0.78316757	-0.54070298	-0.60513653	-0.20053023	-0.71096363	-0.39510189	0.15140239	-0.54924369	0.61733449	0.00102071	-0.50764887	0.13865298	0.41007874	-0.58113615	-0.23930388	-0.50937013	-0.78187025	0.08785092	-0.25514422
7441	74.40000000	-0.95220271	-0.11692831	0.11321690	-0.49903224	0.15580025	-0.78282208	-0.52796175	-0.61089231	-0.19794173	-0.71081265	-0.40268342	0.15059314	-0.57274211	0.59156025	-0.00734694	-0.49659577	0.13039348	0.42138174	-0.58473502	-0.24701422	-0.50624297	-0.77258084	0.07970316	-0.28035016
7442	74.41000000	-0.94930313	-0.11394038	0.11506450	-0.49255057	0.14951367	-0.78279864	-0.52705418	-0.61674941	-0.20195564	-0.70706833	-0.40413561	0.14534299	-0.59692740	0.56686387	-0.00317353	-0.49776074	0.13810557	0.41895357	-0.58290515	-0.25146107	-0.50916248	-0.76516766	0.06209677	-0.30981780
7443	74.42000000	-0.94380349	-0.12040692	0.11729360	-0.49442360	0.15728438	-0.78437664	-0.51906125	-0.62770661	-0.19823385	-0.69831418	-0.41435938	0.15386113	-0.61831731	0.54092889	-0.01693152	-0.50030060	0.13467307	0.43260456	-0.58456582	-0.25778981	-0.51354410	-0.75632436	0.05698254	-0.33908901
7444	74.43000000	-0.95067987	-0.11500837	0.12416121	-0.49109002	0.15615977	-0.79415306	-0.51648904	-0.62591907	-0.19312013	-0.69594948	-0.41664323	0.16190832	-0.64649070	0.51215249	-0.00826067	-0.49848109	0.13629450	0.42452048	-0.58311846	-0.25761143	-0.51766734	-0.74682324	0.04591458	-0.36237054
7445	74.44000000	-0.94260195	-0.11050399	0.11568489	-0.48364959	0.15555760	-0.78652785	-0.51234693	-0.63201320	-0.19684290	-0.68935050	-0.42863336	0.16032408	-0.66442782	0.48792863	-0.00102205	-0.49651106	0.13608438	0.43231273	-0.58035576	-0.26739691	-0.52151538	-0.73861779	0.01970995	-0.38011182
7446	74.45000000	-0.94629073	-0.10753491	0.12079661	-0.48973168	0.15778564	-0.77800001	-0.50614863	-0.62994391	-0.19919776	-0.68919490	-0.43183664	0.16209809	-0.68162830	0.45954611	-0.00023665	-0.49193217	0.14462295	0.43109230	-0.58205917	-0.26790496	-0.52611973	-0.73631751	0.00580748	-0.40234616
